<svg width="160" height="40" xmlns="http://www.w3.org/2000/svg" fill="none">
 <clipPath id="a">
  <path id="svg_1" d="m0,0l40,0l0,40l-40,0l0,-40z"/>
 </clipPath>

 <g>
  <title>Layer 1</title>
  <g id="svg_2" fill="#3056d3" clip-path="url(#a)">
   <path id="svg_3" opacity="0.72" d="m39.9359,18.352c-0.0196,-0.1996 -0.112,-0.3849 -0.2595,-0.5206c-0.1476,-0.1358 -0.34,-0.2125 -0.5405,-0.2154l-19.9359,0c-0.5414,0.0132 -1.0699,0.1678 -1.533,0.4485s-0.8448,0.6777 -1.107,1.1515c-0.2428,0.4237 -0.3705,0.9036 -0.3705,1.392c0,0.4883 0.1277,0.9682 0.3705,1.392c0.0693,0.1332 0.1721,0.2461 0.2984,0.3275c0.1263,0.0813 0.2715,0.1284 0.4215,0.1365l21.9041,0c0.2005,-0.003 0.3929,-0.0797 0.5404,-0.2154c0.1476,-0.1358 0.2399,-0.3211 0.2596,-0.5206c0,-0.624 0,-1.152 0,-1.6s-0.0001,-1.168 -0.0481,-1.776z"/>
   <path id="svg_4" d="m39.9203,18.352c-0.0159,-0.1982 -0.1049,-0.3833 -0.2498,-0.5194s-0.3354,-0.2133 -0.5342,-0.2166l-3.2,0c-0.1122,0.0012 -0.223,0.0261 -0.325,0.073c-0.102,0.0468 -0.1929,0.1146 -0.267,0.199c-0.0746,0.0811 -0.1305,0.1775 -0.1636,0.2826c-0.0332,0.1051 -0.0428,0.2161 -0.0284,0.3254l0,1.6c-0.004,2.5531 -0.651,5.0641 -1.8814,7.3011c-1.2304,2.2371 -3.0046,4.1282 -5.1586,5.4989c-0.224,0.144 -0.4319,0.32 -0.6719,0.448c-1.1741,0.6686 -2.4337,1.1746 -3.7441,1.504l2.0961,3.728c0.0711,0.1232 0.1739,0.2253 0.2976,0.2956c0.1238,0.0703 0.264,0.1063 0.4063,0.1044c0.0846,0.0153 0.1714,0.0153 0.256,0l0.512,-0.208l0.464,-0.192c0.7078,-0.294 1.3971,-0.6306 2.0641,-1.008c3.1195,-1.7573 5.7115,-4.3179 7.5066,-7.4158c1.7952,-3.0978 2.7279,-6.6199 2.7014,-10.2002c0,-0.592 -0.0321,-1.056 -0.0801,-1.6z"/>
   <path id="svg_5" d="m28.5951,33.5387c-0.1075,-0.1825 -0.2784,-0.3192 -0.4801,-0.384l-0.224,0c-0.1389,0.0011 -0.2757,0.0339 -0.4,0.096c-2.2815,1.2982 -4.8629,1.9767 -7.4879,1.968c-4.0287,-0.0085 -7.8899,-1.6126 -10.73865,-4.4613c-2.84872,-2.8488 -4.45287,-6.71 -4.46133,-10.7387c0.00846,-4.0287 1.61261,-7.89 4.46133,-10.73871c2.84875,-2.84873 6.70995,-4.45286 10.73865,-4.46132c2.6238,0.00084 5.2028,0.67868 7.4879,1.96799c0.1195,0.07582 0.2586,0.11478 0.4,0.112l0.176,0c0.1097,-0.02421 0.2132,-0.07081 0.3041,-0.13689c0.0908,-0.06607 0.1672,-0.1502 0.224,-0.2471l1.6,-2.784c0.1058,-0.18516 0.1349,-0.40437 0.0811,-0.6107c-0.0539,-0.20634 -0.1864,-0.3834 -0.3692,-0.4933c-3.0116,-1.7019 -6.4126,-2.59487 -9.8718,-2.592c-5.3018,0.00847 -10.38396,2.11832 -14.13286,5.86722c-3.74889,3.74889 -5.85872,8.83101 -5.86718,14.13281c0.00846,5.3017 2.11829,10.3839 5.86718,14.1328c3.7489,3.7489 8.83106,5.8587 14.13286,5.8672c3.4592,0.0028 6.8602,-0.8901 9.8718,-2.592c0.0916,-0.0514 0.1719,-0.1206 0.2362,-0.2036c0.0642,-0.083 0.1112,-0.178 0.138,-0.2795c0.0269,-0.1015 0.0332,-0.2073 0.0184,-0.3112s-0.0504,-0.2038 -0.1045,-0.2937l-1.6,-2.816z"/>
   <path id="svg_6" opacity="0.56" d="m22.2883,22.4l-5.0559,0c-0.1434,-0.0102 -0.2823,-0.0548 -0.4049,-0.13c-0.1225,-0.0752 -0.2251,-0.1788 -0.2992,-0.302l9.2961,16.464c0.0712,0.1233 0.1739,0.2253 0.2977,0.2957c0.1237,0.0703 0.2639,0.1063 0.4062,0.1043c0.09,0.0152 0.1821,0.0152 0.2721,0c1.0572,-0.3806 2.0797,-0.8517 3.056,-1.408c0.0916,-0.0514 0.1717,-0.1206 0.236,-0.2036c0.0643,-0.0829 0.1112,-0.178 0.1381,-0.2795c0.0268,-0.1014 0.0331,-0.2073 0.0183,-0.3112s-0.0503,-0.2038 -0.1045,-0.2937l-7.856,-13.936z"/>
  </g>
  <text transform="matrix(1.14669 0 0 1.04979 -22.4687 -0.15357)" stroke="null" font-weight="bold" xml:space="preserve" text-anchor="start" font-family="'Cabin'" font-size="24" id="svg_17" y="26.66667" x="61.90447" stroke-width="0" fill="#3056d3">Moochee</text>
 </g>
</svg>